<?xml version="1.0" encoding="UTF-8" standalone="no"?>
<!-- Created with Inkscape (http://www.inkscape.org/) -->

<svg
   width="67.715752mm"
   height="40.910961mm"
   viewBox="0 0 67.71575 40.910961"
   version="1.1"
   id="svg5"
   xml:space="preserve"
   inkscape:version="1.2.2 (732a01da63, 2022-12-09)"
   sodipodi:docname="rysunek1.svg"
   xmlns:inkscape="http://www.inkscape.org/namespaces/inkscape"
   xmlns:sodipodi="http://sodipodi.sourceforge.net/DTD/sodipodi-0.dtd"
   xmlns="http://www.w3.org/2000/svg"
   xmlns:svg="http://www.w3.org/2000/svg"><sodipodi:namedview
     id="namedview7"
     pagecolor="#ffffff"
     bordercolor="#000000"
     borderopacity="0.25"
     inkscape:showpageshadow="2"
     inkscape:pageopacity="0.0"
     inkscape:pagecheckerboard="0"
     inkscape:deskcolor="#d1d1d1"
     inkscape:document-units="mm"
     showgrid="false"
     inkscape:zoom="2.3411616"
     inkscape:cx="203.1043"
     inkscape:cy="78.166325"
     inkscape:window-width="1600"
     inkscape:window-height="837"
     inkscape:window-x="-8"
     inkscape:window-y="-8"
     inkscape:window-maximized="1"
     inkscape:current-layer="layer1" /><defs
     id="defs2" /><g
     inkscape:label="Warstwa 1"
     inkscape:groupmode="layer"
     id="layer1"><path
       style="fill:#000000;stroke:none;stroke-width:2.47794"
       d="m 13.099617,15.341818 c 1.198692,0.826665 0.639302,1.533461 0.239738,2.120389 -5.8048683,0.679259 -7.1346199,0.639303 -12.2202719,0.399561 -0.74362796,-0.622852 -0.87782396,-1.241693 0.270845,-2.230432 1.960084,-1.687181 1.794467,-1.298288 6.0138846,-7.4902897 0.696729,-1.83517 1.461513,-4.0098137 0.212232,-5.2258107 -0.772046,-0.751476 -3.2247926,0.218298 -3.2247926,0.218298 -2.014158,0.771906 -3.181956,2.120125 -3.75164596,0.961645 -0.932409,-1.896079 3.00390396,-3.86063599 4.99538896,-3.90212799 7.9700969,-0.08796 5.0531019,6.32461569 1.3150106,12.58346239 -1.3605516,2.278031 -2.8935576,2.680124 2.900386,2.699834 M 66.683028,1.1783676 V 5.4191473 C 37.02711,6.4248473 30.320497,17.634057 23.246411,37.224957 l -17.3746459,-14.84271 8.6873229,-2.12039 8.687323,8.48155 C 28.256679,7.9742173 37.969684,1.5297176 66.683028,1.1783676 m -17.374653,10.6019394 2.89578,6.36116 14.478873,-4.24077 c -6.284123,4.06563 -17.762393,13.24796 -2.895783,14.84271 l -11.58309,6.36116 -2.89578,-6.36116 -14.478868,6.36116 c 6.765398,-8.80321 14.540548,-11.15154 5.791548,-21.20387 z"
       id="path308"
       sodipodi:nodetypes="cccscacacsccccccccccccccccc" /><text
       xml:space="preserve"
       style="font-size:8.46667px;fill:#000000;stroke-width:0.264583"
       x="22.735178"
       y="47.867737"
       id="text364"><tspan
         sodipodi:role="line"
         id="tspan362"
         style="font-size:8.46667px;fill:#ffffff;stroke-width:0.264583"
         x="22.735178"
         y="47.867737" /></text></g></svg>
